<?xml version="1.0" encoding="UTF-8"?>
<!DOCTYPE svg PUBLIC "-//W3C//DTD SVG 1.1//EN" "http://www.w3.org/Graphics/SVG/1.1/DTD/svg11.dtd">
<svg xmlns="http://www.w3.org/2000/svg" version="1.1" width="609px" height="454px" style="shape-rendering:geometricPrecision; text-rendering:geometricPrecision; image-rendering:optimizeQuality; fill-rule:evenodd; clip-rule:evenodd" xmlns:xlink="http://www.w3.org/1999/xlink">
<g><path style="opacity:0.966" fill="#e51d27" d="M 240.5,77.5 C 239.691,79.2922 239.191,81.2922 239,83.5C 232.924,82.5236 226.758,82.1903 220.5,82.5C 220.737,81.209 220.404,80.209 219.5,79.5C 219.5,53.1667 219.5,26.8333 219.5,0.5C 226.422,0.187834 233.256,0.521167 240,1.5C 240.5,26.8311 240.667,52.1645 240.5,77.5 Z"/></g>
<g><path style="opacity:0.462" fill="#1a1a1a" d="M 608.5,10.5 C 608.5,11.1667 608.5,11.8333 608.5,12.5C 607.167,14.5 607.167,16.5 608.5,18.5C 608.5,19.1667 608.5,19.8333 608.5,20.5C 604.809,19.4815 601.143,19.3148 597.5,20C 597.167,19.6667 596.833,19.3333 596.5,19C 598.418,17.2298 598.918,15.0631 598,12.5C 597,13.8333 596,13.8333 595,12.5C 594.289,14.8991 594.456,17.2324 595.5,19.5C 594.167,20.8333 592.833,20.8333 591.5,19.5C 592.544,17.2324 592.711,14.8991 592,12.5C 590.187,13.6091 589.354,12.9424 589.5,10.5C 593.182,10.3347 596.848,10.5014 600.5,11C 601.46,12.4194 602.293,13.9194 603,15.5C 603.572,12.293 605.405,10.6263 608.5,10.5 Z M 599.5,15.5 C 600.267,16.172 600.934,17.0053 601.5,18C 599.939,18.1881 599.272,17.3547 599.5,15.5 Z M 604.5,15.5 C 605.776,16.3864 605.776,17.3864 604.5,18.5C 603.913,17.7666 603.913,16.7666 604.5,15.5 Z"/></g>
<g><path style="opacity:0.946" fill="#e5222a" d="M 240.5,77.5 C 240.5,84.1667 240.5,90.8333 240.5,97.5C 239.596,96.791 239.263,95.791 239.5,94.5C 232.833,94.5 226.167,94.5 219.5,94.5C 219.5,89.5 219.5,84.5 219.5,79.5C 220.404,80.209 220.737,81.209 220.5,82.5C 226.758,82.1903 232.924,82.5236 239,83.5C 239.191,81.2922 239.691,79.2922 240.5,77.5 Z"/></g>
<g><path style="opacity:0.954" fill="#e62c2d" d="M 219.5,94.5 C 226.167,94.5 232.833,94.5 239.5,94.5C 239.263,95.791 239.596,96.791 240.5,97.5C 240.5,101.5 240.5,105.5 240.5,109.5C 239.596,108.791 239.263,107.791 239.5,106.5C 232.745,106.207 226.078,106.54 219.5,107.5C 219.5,103.167 219.5,98.8333 219.5,94.5 Z"/></g>
<g><path style="opacity:0.958" fill="#e63530" d="M 240.5,109.5 C 240.5,111.5 240.5,113.5 240.5,115.5C 239.596,114.791 239.263,113.791 239.5,112.5C 232.76,111.582 226.093,111.248 219.5,111.5C 219.5,110.167 219.5,108.833 219.5,107.5C 226.078,106.54 232.745,106.207 239.5,106.5C 239.263,107.791 239.596,108.791 240.5,109.5 Z"/></g>
<g><path style="opacity:0.998" fill="#e73b33" d="M 219.5,111.5 C 226.093,111.248 232.76,111.582 239.5,112.5C 239.263,113.791 239.596,114.791 240.5,115.5C 240.5,116.167 240.5,116.833 240.5,117.5C 238.443,118.202 236.443,118.535 234.5,118.5C 233.672,117.585 232.672,116.919 231.5,116.5C 227.966,117.922 224.3,118.589 220.5,118.5C 220.768,116.901 220.434,115.568 219.5,114.5C 219.5,113.5 219.5,112.5 219.5,111.5 Z"/></g>
<g><path style="opacity:0.997" fill="#e74037" d="M 219.5,114.5 C 220.434,115.568 220.768,116.901 220.5,118.5C 224.3,118.589 227.966,117.922 231.5,116.5C 232.672,116.919 233.672,117.585 234.5,118.5C 236.443,118.535 238.443,118.202 240.5,117.5C 240.5,118.167 240.5,118.833 240.5,119.5C 239.566,120.568 239.232,121.901 239.5,123.5C 232.833,123.5 226.167,123.5 219.5,123.5C 219.5,120.5 219.5,117.5 219.5,114.5 Z"/></g>
<g><path style="opacity:0.891" fill="#e8473b" d="M 240.5,119.5 C 240.5,123.167 240.5,126.833 240.5,130.5C 233.412,130.205 226.412,130.538 219.5,131.5C 219.5,128.833 219.5,126.167 219.5,123.5C 226.167,123.5 232.833,123.5 239.5,123.5C 239.232,121.901 239.566,120.568 240.5,119.5 Z"/></g>
<g><path style="opacity:0.984" fill="#1e1e1e" d="M 130.5,130.5 C 143.725,129.81 156.725,131.144 169.5,134.5C 169.5,151.5 169.5,168.5 169.5,185.5C 133.603,173.587 111.103,185.921 102,222.5C 98.8169,240.644 100.484,258.311 107,275.5C 121.344,299.682 141.678,306.349 168,295.5C 168.333,295.833 168.667,296.167 169,296.5C 169.833,313.177 169.666,329.843 168.5,346.5C 118.456,359.225 81.9559,342.558 59,296.5C 44.6835,258.333 45.0168,220.333 60,182.5C 74.7124,153.078 98.2124,135.745 130.5,130.5 Z"/></g>
<g><path style="opacity:0.955" fill="#e95242" d="M 240.5,130.5 C 240.5,133.167 240.5,135.833 240.5,138.5C 233.5,139.167 226.5,139.833 219.5,140.5C 219.5,137.5 219.5,134.5 219.5,131.5C 226.412,130.538 233.412,130.205 240.5,130.5 Z"/></g>
<g><path style="opacity:0.988" fill="#1e1e1e" d="M 308.5,136.5 C 340.833,136.5 373.167,136.5 405.5,136.5C 405.5,151.833 405.5,167.167 405.5,182.5C 389.167,182.5 372.833,182.5 356.5,182.5C 356.5,194.833 356.5,207.167 356.5,219.5C 370.833,219.5 385.167,219.5 399.5,219.5C 399.5,234.167 399.5,248.833 399.5,263.5C 385.167,263.5 370.833,263.5 356.5,263.5C 356.5,275.833 356.5,288.167 356.5,300.5C 372.833,300.5 389.167,300.5 405.5,300.5C 405.5,315.833 405.5,331.167 405.5,346.5C 373.167,346.5 340.833,346.5 308.5,346.5C 308.5,276.5 308.5,206.5 308.5,136.5 Z"/></g>
<g><path style="opacity:0.978" fill="#1e1e1e" d="M 468.5,136.5 C 484.833,136.5 501.167,136.5 517.5,136.5C 517.5,162.167 517.5,187.833 517.5,213.5C 531.167,213.5 544.833,213.5 558.5,213.5C 558.5,187.833 558.5,162.167 558.5,136.5C 574.833,136.5 591.167,136.5 607.5,136.5C 607.5,206.5 607.5,276.5 607.5,346.5C 591.167,346.5 574.833,346.5 558.5,346.5C 558.5,317.5 558.5,288.5 558.5,259.5C 544.833,259.5 531.167,259.5 517.5,259.5C 517.5,288.5 517.5,317.5 517.5,346.5C 501.167,346.5 484.833,346.5 468.5,346.5C 468.5,276.5 468.5,206.5 468.5,136.5 Z"/></g>
<g><path style="opacity:0.898" fill="#ea5a48" d="M 240.5,138.5 C 240.5,140.5 240.5,142.5 240.5,144.5C 239.234,143.91 237.901,143.41 236.5,143C 230.716,142.727 225.049,142.56 219.5,142.5C 219.5,141.833 219.5,141.167 219.5,140.5C 226.5,139.833 233.5,139.167 240.5,138.5 Z"/></g>
<g><path style="opacity:0.969" fill="#ea604c" d="M 219.5,142.5 C 225.049,142.56 230.716,142.727 236.5,143C 237.901,143.41 239.234,143.91 240.5,144.5C 240.5,145.5 240.5,146.5 240.5,147.5C 233.412,147.205 226.412,147.538 219.5,148.5C 219.5,146.5 219.5,144.5 219.5,142.5 Z"/></g>
<g><path style="opacity:0.964" fill="#eb6853" d="M 240.5,147.5 C 240.5,149.5 240.5,151.5 240.5,153.5C 233.653,153.195 226.653,153.528 219.5,154.5C 219.5,152.5 219.5,150.5 219.5,148.5C 226.412,147.538 233.412,147.205 240.5,147.5 Z"/></g>
<g><path style="opacity:0.998" fill="#ec6e59" d="M 240.5,153.5 C 240.5,154.167 240.5,154.833 240.5,155.5C 233.5,156.167 226.5,156.833 219.5,157.5C 219.5,156.5 219.5,155.5 219.5,154.5C 226.653,153.528 233.653,153.195 240.5,153.5 Z"/></g>
<g><path style="opacity:0.943" fill="#ee7760" d="M 240.5,155.5 C 240.5,157.833 240.5,160.167 240.5,162.5C 233.566,162.203 226.566,162.537 219.5,163.5C 219.5,161.5 219.5,159.5 219.5,157.5C 226.5,156.833 233.5,156.167 240.5,155.5 Z"/></g>
<g><path style="opacity:0.893" fill="#ef7f67" d="M 240.5,162.5 C 240.5,164.833 240.5,167.167 240.5,169.5C 240.167,169.5 239.833,169.5 239.5,169.5C 239.119,168.069 238.119,167.236 236.5,167C 230.796,166.313 225.13,166.479 219.5,167.5C 219.5,166.167 219.5,164.833 219.5,163.5C 226.566,162.537 233.566,162.203 240.5,162.5 Z"/></g>
<g><path style="opacity:0.939" fill="#ef856d" d="M 239.5,169.5 C 232.871,168.901 226.205,169.568 219.5,171.5C 219.5,170.167 219.5,168.833 219.5,167.5C 225.13,166.479 230.796,166.313 236.5,167C 238.119,167.236 239.119,168.069 239.5,169.5 Z"/></g>
<g><path style="opacity:0.857" fill="#f08a73" d="M 239.5,169.5 C 239.833,169.5 240.167,169.5 240.5,169.5C 240.5,171.5 240.5,173.5 240.5,175.5C 240.167,175.5 239.833,175.5 239.5,175.5C 239.082,174.778 238.416,174.278 237.5,174C 231.463,173.303 225.463,173.47 219.5,174.5C 219.5,173.5 219.5,172.5 219.5,171.5C 226.205,169.568 232.871,168.901 239.5,169.5 Z"/></g>
<g><path style="opacity:0.937" fill="#f19179" d="M 239.5,175.5 C 239.38,176.586 238.713,177.253 237.5,177.5C 231.364,176.029 225.364,176.362 219.5,178.5C 219.5,177.167 219.5,175.833 219.5,174.5C 225.463,173.47 231.463,173.303 237.5,174C 238.416,174.278 239.082,174.778 239.5,175.5 Z"/></g>
<g><path style="opacity:0.9" fill="#f29780" d="M 239.5,175.5 C 239.833,175.5 240.167,175.5 240.5,175.5C 240.5,177.5 240.5,179.5 240.5,181.5C 233.283,179.847 226.283,180.181 219.5,182.5C 219.5,181.167 219.5,179.833 219.5,178.5C 225.364,176.362 231.364,176.029 237.5,177.5C 238.713,177.253 239.38,176.586 239.5,175.5 Z"/></g>
<g><path style="opacity:0.538" fill="#f3a089" d="M 240.5,181.5 C 240.5,183.5 240.5,185.5 240.5,187.5C 239.733,186.828 239.066,185.995 238.5,185C 232.116,184.249 225.783,184.416 219.5,185.5C 219.5,184.5 219.5,183.5 219.5,182.5C 226.283,180.181 233.283,179.847 240.5,181.5 Z"/></g>
<g><path style="opacity:0.997" fill="#f4a690" d="M 240.5,187.5 C 240.5,187.833 240.5,188.167 240.5,188.5C 233.334,187.528 226.334,187.195 219.5,187.5C 219.5,186.833 219.5,186.167 219.5,185.5C 225.783,184.416 232.116,184.249 238.5,185C 239.066,185.995 239.733,186.828 240.5,187.5 Z"/></g>
<g><path style="opacity:0.976" fill="#f5ad97" d="M 219.5,187.5 C 226.334,187.195 233.334,187.528 240.5,188.5C 240.5,190.167 240.5,191.833 240.5,193.5C 233.5,190.833 226.5,190.833 219.5,193.5C 219.5,191.5 219.5,189.5 219.5,187.5 Z"/></g>
<g><path style="opacity:0.981" fill="#f6b7a3" d="M 240.5,193.5 C 240.5,195.167 240.5,196.833 240.5,198.5C 233.485,195.897 226.485,195.897 219.5,198.5C 219.5,196.833 219.5,195.167 219.5,193.5C 226.5,190.833 233.5,190.833 240.5,193.5 Z"/></g>
<g><path style="opacity:0.996" fill="#f7c1af" d="M 240.5,198.5 C 240.5,199.833 240.5,201.167 240.5,202.5C 233.746,201.211 226.746,201.211 219.5,202.5C 219.5,201.167 219.5,199.833 219.5,198.5C 226.485,195.897 233.485,195.897 240.5,198.5 Z"/></g>
<g><path style="opacity:0.997" fill="#f9c9ba" d="M 240.5,202.5 C 240.5,204.167 240.5,205.833 240.5,207.5C 239.883,207.611 239.383,207.944 239,208.5C 232.573,204.599 226.073,204.599 219.5,208.5C 219.5,206.5 219.5,204.5 219.5,202.5C 226.746,201.211 233.746,201.211 240.5,202.5 Z"/></g>
<g><path style="opacity:0.884" fill="#fad2c4" d="M 240.5,207.5 C 240.5,208.833 240.5,210.167 240.5,211.5C 233.5,207.5 226.5,207.5 219.5,211.5C 219.5,210.5 219.5,209.5 219.5,208.5C 226.073,204.599 232.573,204.599 239,208.5C 239.383,207.944 239.883,207.611 240.5,207.5 Z"/></g>
<g><path style="opacity:0.884" fill="#fbdacf" d="M 240.5,211.5 C 240.5,214.167 240.5,216.833 240.5,219.5C 239.78,216.94 238.113,215.107 235.5,214C 229.758,212.834 224.425,213.668 219.5,216.5C 219.5,214.833 219.5,213.167 219.5,211.5C 226.5,207.5 233.5,207.5 240.5,211.5 Z"/></g>
<g><path style="opacity:0.945" fill="#fce4db" d="M 240.5,219.5 C 240.5,222.167 240.5,224.833 240.5,227.5C 239.015,219.87 234.348,216.704 226.5,218C 224.004,219.666 221.671,221.5 219.5,223.5C 219.5,221.167 219.5,218.833 219.5,216.5C 224.425,213.668 229.758,212.834 235.5,214C 238.113,215.107 239.78,216.94 240.5,219.5 Z"/></g>
<g><path style="opacity:0.955" fill="#fcece5" d="M 240.5,227.5 C 240.5,227.833 240.5,228.167 240.5,228.5C 237.843,236.45 232.51,238.95 224.5,236C 222.7,234.188 221.033,232.355 219.5,230.5C 219.5,228.167 219.5,225.833 219.5,223.5C 221.671,221.5 224.004,219.666 226.5,218C 234.348,216.704 239.015,219.87 240.5,227.5 Z"/></g>
<g><path style="opacity:1" fill="#fdf5f2" d="M 228.5,221.5 C 235.508,222.259 237.175,225.592 233.5,231.5C 226.861,233.691 224.028,231.358 225,224.5C 226.145,223.364 227.312,222.364 228.5,221.5 Z"/></g>
<g><path style="opacity:0.933" fill="#fce4db" d="M 240.5,228.5 C 240.5,230.833 240.5,233.167 240.5,235.5C 237.164,241.089 232.164,242.922 225.5,241C 223.593,239.878 221.593,239.045 219.5,238.5C 219.5,235.833 219.5,233.167 219.5,230.5C 221.033,232.355 222.7,234.188 224.5,236C 232.51,238.95 237.843,236.45 240.5,228.5 Z"/></g>
<g><path style="opacity:0.865" fill="#fbdacf" d="M 240.5,235.5 C 240.5,237.833 240.5,240.167 240.5,242.5C 233.809,247.328 226.809,247.662 219.5,243.5C 219.5,241.833 219.5,240.167 219.5,238.5C 221.593,239.045 223.593,239.878 225.5,241C 232.164,242.922 237.164,241.089 240.5,235.5 Z"/></g>
<g><path style="opacity:0.887" fill="#fad0c2" d="M 240.5,242.5 C 240.5,244.833 240.5,247.167 240.5,249.5C 233.37,251.085 226.37,250.752 219.5,248.5C 219.5,246.833 219.5,245.167 219.5,243.5C 226.809,247.662 233.809,247.328 240.5,242.5 Z"/></g>
<g><path style="opacity:0.998" fill="#f8c8b8" d="M 219.5,248.5 C 226.37,250.752 233.37,251.085 240.5,249.5C 240.5,250.5 240.5,251.5 240.5,252.5C 239.883,252.389 239.383,252.056 239,251.5C 232.281,254.362 225.781,254.028 219.5,250.5C 219.5,249.833 219.5,249.167 219.5,248.5 Z"/></g>
<g><path style="opacity:0.966" fill="#f7bfad" d="M 219.5,250.5 C 225.781,254.028 232.281,254.362 239,251.5C 239.383,252.056 239.883,252.389 240.5,252.5C 240.5,253.833 240.5,255.167 240.5,256.5C 237.03,257.218 233.53,257.884 230,258.5C 226.47,257.884 222.97,257.218 219.5,256.5C 219.5,254.5 219.5,252.5 219.5,250.5 Z"/></g>
<g><path style="opacity:0.982" fill="#f6b8a5" d="M 219.5,256.5 C 222.97,257.218 226.47,257.884 230,258.5C 233.53,257.884 237.03,257.218 240.5,256.5C 240.5,257.833 240.5,259.167 240.5,260.5C 233.587,260.812 226.587,260.479 219.5,259.5C 219.5,258.5 219.5,257.5 219.5,256.5 Z"/></g>
<g><path style="opacity:0.938" fill="#f5b19c" d="M 219.5,259.5 C 226.587,260.479 233.587,260.812 240.5,260.5C 240.5,262.5 240.5,264.5 240.5,266.5C 240.167,266.5 239.833,266.5 239.5,266.5C 239.5,265.5 239.5,264.5 239.5,263.5C 232.833,264.833 226.167,264.833 219.5,263.5C 219.5,262.167 219.5,260.833 219.5,259.5 Z"/></g>
<g><path style="opacity:0.973" fill="#f5ab96" d="M 219.5,263.5 C 226.167,264.833 232.833,264.833 239.5,263.5C 239.5,264.5 239.5,265.5 239.5,266.5C 232.841,267.783 226.174,267.783 219.5,266.5C 219.5,265.5 219.5,264.5 219.5,263.5 Z"/></g>
<g><path style="opacity:0.998" fill="#f4a48d" d="M 219.5,266.5 C 226.174,267.783 232.841,267.783 239.5,266.5C 239.833,266.5 240.167,266.5 240.5,266.5C 240.5,268.5 240.5,270.5 240.5,272.5C 240.167,272.5 239.833,272.5 239.5,272.5C 239.631,271.761 239.464,271.094 239,270.5C 232.531,271.778 226.031,271.778 219.5,270.5C 219.5,269.167 219.5,267.833 219.5,266.5 Z"/></g>
<g><path style="opacity:1" fill="#f39d86" d="M 219.5,270.5 C 226.031,271.778 232.531,271.778 239,270.5C 239.464,271.094 239.631,271.761 239.5,272.5C 238.737,273.268 237.737,273.768 236.5,274C 230.716,274.273 225.049,274.44 219.5,274.5C 219.5,273.167 219.5,271.833 219.5,270.5 Z"/></g>
<g><path style="opacity:0.891" fill="#f29780" d="M 239.5,272.5 C 239.833,272.5 240.167,272.5 240.5,272.5C 240.5,274.833 240.5,277.167 240.5,279.5C 240.167,279.5 239.833,279.5 239.5,279.5C 239.719,278.325 239.386,277.325 238.5,276.5C 231.889,279.315 225.556,278.982 219.5,275.5C 219.5,275.167 219.5,274.833 219.5,274.5C 225.049,274.44 230.716,274.273 236.5,274C 237.737,273.768 238.737,273.268 239.5,272.5 Z"/></g>
<g><path style="opacity:0.935" fill="#f1927a" d="M 219.5,275.5 C 225.556,278.982 231.889,279.315 238.5,276.5C 239.386,277.325 239.719,278.325 239.5,279.5C 233.021,280.491 226.354,280.824 219.5,280.5C 219.5,278.833 219.5,277.167 219.5,275.5 Z"/></g>
<g><path style="opacity:0.868" fill="#f08b73" d="M 239.5,279.5 C 239.833,279.5 240.167,279.5 240.5,279.5C 240.5,281.5 240.5,283.5 240.5,285.5C 240.167,285.5 239.833,285.5 239.5,285.5C 235.345,285.04 231.012,284.873 226.5,285C 223.823,284.832 221.49,283.999 219.5,282.5C 219.5,281.833 219.5,281.167 219.5,280.5C 226.354,280.824 233.021,280.491 239.5,279.5 Z"/></g>
<g><path style="opacity:0.936" fill="#ef856d" d="M 219.5,282.5 C 221.49,283.999 223.823,284.832 226.5,285C 231.012,284.873 235.345,285.04 239.5,285.5C 233.25,287.459 226.584,288.126 219.5,287.5C 219.5,285.833 219.5,284.167 219.5,282.5 Z"/></g>
<g><path style="opacity:0.899" fill="#ef7f67" d="M 239.5,285.5 C 239.833,285.5 240.167,285.5 240.5,285.5C 240.5,287.833 240.5,290.167 240.5,292.5C 240.167,292.5 239.833,292.5 239.5,292.5C 232.933,291.799 226.267,291.132 219.5,290.5C 219.5,289.5 219.5,288.5 219.5,287.5C 226.584,288.126 233.25,287.459 239.5,285.5 Z"/></g>
<g><path style="opacity:0.944" fill="#ee7962" d="M 219.5,290.5 C 226.267,291.132 232.933,291.799 239.5,292.5C 233.25,294.459 226.584,295.126 219.5,294.5C 219.5,293.167 219.5,291.833 219.5,290.5 Z"/></g>
<g><path style="opacity:0.998" fill="#ed705a" d="M 239.5,292.5 C 239.833,292.5 240.167,292.5 240.5,292.5C 240.5,295.5 240.5,298.5 240.5,301.5C 233.606,301.811 226.606,301.478 219.5,300.5C 219.5,298.5 219.5,296.5 219.5,294.5C 226.584,295.126 233.25,294.459 239.5,292.5 Z"/></g>
<g><path style="opacity:0.96" fill="#ec6753" d="M 219.5,300.5 C 226.606,301.478 233.606,301.811 240.5,301.5C 240.5,303.5 240.5,305.5 240.5,307.5C 233.412,307.795 226.412,307.462 219.5,306.5C 219.5,304.5 219.5,302.5 219.5,300.5 Z"/></g>
<g><path style="opacity:0.967" fill="#ea604d" d="M 219.5,306.5 C 226.412,307.462 233.412,307.795 240.5,307.5C 240.5,308.5 240.5,309.5 240.5,310.5C 233.8,311.323 226.8,311.656 219.5,311.5C 219.5,309.833 219.5,308.167 219.5,306.5 Z"/></g>
<g><path style="opacity:0.916" fill="#ea5a48" d="M 240.5,310.5 C 240.5,312.167 240.5,313.833 240.5,315.5C 233.412,315.795 226.412,315.462 219.5,314.5C 219.5,313.5 219.5,312.5 219.5,311.5C 226.8,311.656 233.8,311.323 240.5,310.5 Z"/></g>
<g><path style="opacity:0.971" fill="#e95343" d="M 219.5,314.5 C 226.412,315.462 233.412,315.795 240.5,315.5C 240.5,318.167 240.5,320.833 240.5,323.5C 239.596,322.791 239.263,321.791 239.5,320.5C 232.833,320.5 226.167,320.5 219.5,320.5C 219.5,318.5 219.5,316.5 219.5,314.5 Z"/></g>
<g><path style="opacity:0.969" fill="#e94d3f" d="M 219.5,320.5 C 226.167,320.5 232.833,320.5 239.5,320.5C 239.263,321.791 239.596,322.791 240.5,323.5C 240.5,323.833 240.5,324.167 240.5,324.5C 233.302,326.14 226.302,325.807 219.5,323.5C 219.5,322.5 219.5,321.5 219.5,320.5 Z"/></g>
<g><path style="opacity:0.877" fill="#e8473b" d="M 219.5,323.5 C 226.302,325.807 233.302,326.14 240.5,324.5C 240.5,328.167 240.5,331.833 240.5,335.5C 239.566,334.432 239.232,333.099 239.5,331.5C 232.833,331.5 226.167,331.5 219.5,331.5C 219.5,328.833 219.5,326.167 219.5,323.5 Z"/></g>
<g><path style="opacity:1" fill="#e73e35" d="M 219.5,331.5 C 226.167,331.5 232.833,331.5 239.5,331.5C 239.232,333.099 239.566,334.432 240.5,335.5C 240.5,336.167 240.5,336.833 240.5,337.5C 239.732,338.263 239.232,339.263 239,340.5C 238,339.833 237,339.167 236,338.5C 232,339.833 228,339.833 224,338.5C 222.53,339.267 221.03,339.933 219.5,340.5C 219.5,337.5 219.5,334.5 219.5,331.5 Z"/></g>
<g><path style="opacity:0.971" fill="#e73631" d="M 240.5,337.5 C 240.5,340.167 240.5,342.833 240.5,345.5C 239.596,346.209 239.263,347.209 239.5,348.5C 232.549,349.066 225.882,348.399 219.5,346.5C 219.5,344.5 219.5,342.5 219.5,340.5C 221.03,339.933 222.53,339.267 224,338.5C 228,339.833 232,339.833 236,338.5C 237,339.167 238,339.833 239,340.5C 239.232,339.263 239.732,338.263 240.5,337.5 Z"/></g>
<g><path style="opacity:0.964" fill="#e62a2d" d="M 240.5,345.5 C 240.5,349.5 240.5,353.5 240.5,357.5C 239.842,358.398 239.176,359.398 238.5,360.5C 232.334,359.5 226.001,359.5 219.5,360.5C 219.5,355.833 219.5,351.167 219.5,346.5C 225.882,348.399 232.549,349.066 239.5,348.5C 239.263,347.209 239.596,346.209 240.5,345.5 Z"/></g>
<g><path style="opacity:0.953" fill="#e5222a" d="M 240.5,357.5 C 240.5,364.167 240.5,370.833 240.5,377.5C 239.691,375.708 239.191,373.708 239,371.5C 232.59,372.478 226.09,372.811 219.5,372.5C 219.5,368.5 219.5,364.5 219.5,360.5C 226.001,359.5 232.334,359.5 238.5,360.5C 239.176,359.398 239.842,358.398 240.5,357.5 Z"/></g>
<g><path style="opacity:0.983" fill="#e51e27" d="M 240.5,377.5 C 240.5,402.833 240.5,428.167 240.5,453.5C 233.5,453.5 226.5,453.5 219.5,453.5C 219.5,426.5 219.5,399.5 219.5,372.5C 226.09,372.811 232.59,372.478 239,371.5C 239.191,373.708 239.691,375.708 240.5,377.5 Z"/></g>
<g><path style="opacity:0.922" fill="#1e1e1e" d="M 345.5,390.5 C 348.5,390.5 351.5,390.5 354.5,390.5C 354.334,395.179 354.501,399.845 355,404.5C 357.497,402.522 360.331,402.022 363.5,403C 364.893,404.171 365.727,405.671 366,407.5C 366.5,414.492 366.666,421.492 366.5,428.5C 363.5,428.5 360.5,428.5 357.5,428.5C 357.666,423.156 357.499,417.823 357,412.5C 356.586,412.043 356.086,411.709 355.5,411.5C 354.505,417.128 354.171,422.794 354.5,428.5C 351.5,428.5 348.5,428.5 345.5,428.5C 345.5,415.833 345.5,403.167 345.5,390.5 Z"/></g>
<g><path style="opacity:0.895" fill="#1e1e1e" d="M 427.5,390.5 C 430.5,390.5 433.5,390.5 436.5,390.5C 436.5,403.167 436.5,415.833 436.5,428.5C 433.5,428.5 430.5,428.5 427.5,428.5C 427.5,415.833 427.5,403.167 427.5,390.5 Z"/></g>
<g><path style="opacity:0.859" fill="#1e1e1e" d="M 540.5,390.5 C 543.5,390.5 546.5,390.5 549.5,390.5C 549.334,396.842 549.5,403.175 550,409.5C 550.792,407.413 551.959,405.579 553.5,404C 556.882,403.176 560.216,403.343 563.5,404.5C 561.167,407.833 558.833,411.167 556.5,414.5C 559.393,418.952 561.726,423.619 563.5,428.5C 560.102,428.82 556.768,428.487 553.5,427.5C 550.135,417.972 548.802,418.306 549.5,428.5C 546.5,428.5 543.5,428.5 540.5,428.5C 540.5,415.833 540.5,403.167 540.5,390.5 Z"/></g>
<g><path style="opacity:0.938" fill="#1e1e1e" d="M 100.5,392.5 C 103.167,392.5 105.833,392.5 108.5,392.5C 108.5,395.5 108.5,398.5 108.5,401.5C 105.5,401.167 104.167,402.5 104.5,405.5C 105.833,405.5 107.167,405.5 108.5,405.5C 108.5,408.167 108.5,410.833 108.5,413.5C 107.167,413.5 105.833,413.5 104.5,413.5C 104.5,419.167 104.5,424.833 104.5,430.5C 101.833,430.5 99.1667,430.5 96.5,430.5C 96.5,424.833 96.5,419.167 96.5,413.5C 95.5,413.5 94.5,413.5 93.5,413.5C 93.5,410.833 93.5,408.167 93.5,405.5C 94.5,405.5 95.5,405.5 96.5,405.5C 96.3354,402.482 96.502,399.482 97,396.5C 97.6897,394.65 98.8564,393.316 100.5,392.5 Z"/></g>
<g><path style="opacity:0.925" fill="#1e1e1e" d="M 159.5,392.5 C 162.167,392.5 164.833,392.5 167.5,392.5C 167.5,405.167 167.5,417.833 167.5,430.5C 164.289,430.988 161.456,430.321 159,428.5C 154.279,432.758 150.279,432.091 147,426.5C 145,420.833 145,415.167 147,409.5C 149.949,404.31 153.949,403.31 159,406.5C 159.499,401.845 159.666,397.179 159.5,392.5 Z M 155.5,412.5 C 156.496,412.414 157.329,412.748 158,413.5C 159.639,416.972 159.306,420.306 157,423.5C 154.224,420.231 153.724,416.564 155.5,412.5 Z"/></g>
<g><path style="opacity:0.907" fill="#1e1e1e" d="M 308.5,392.5 C 314.167,392.5 319.833,392.5 325.5,392.5C 325.5,395.5 325.5,398.5 325.5,401.5C 322.833,401.5 320.167,401.5 317.5,401.5C 317.5,403.167 317.5,404.833 317.5,406.5C 319.833,406.5 322.167,406.5 324.5,406.5C 324.5,409.167 324.5,411.833 324.5,414.5C 322.167,414.5 319.833,414.5 317.5,414.5C 317.5,416.167 317.5,417.833 317.5,419.5C 320.167,419.5 322.833,419.5 325.5,419.5C 325.5,422.5 325.5,425.5 325.5,428.5C 319.833,428.5 314.167,428.5 308.5,428.5C 308.5,416.5 308.5,404.5 308.5,392.5 Z"/></g>
<g><path style="opacity:0.834" fill="#1c1c1c" d="M 373.5,391.5 C 379.758,392.477 381.091,395.644 377.5,401C 372.024,402.026 369.857,399.859 371,394.5C 371.698,393.309 372.531,392.309 373.5,391.5 Z"/></g>
<g><path style="opacity:0.918" fill="#1d1d1d" d="M 468.5,392.5 C 471.5,392.5 474.5,392.5 477.5,392.5C 477.5,396.833 477.5,401.167 477.5,405.5C 479.167,405.5 480.833,405.5 482.5,405.5C 482.5,401.167 482.5,396.833 482.5,392.5C 485.833,392.5 489.167,392.5 492.5,392.5C 492.5,404.5 492.5,416.5 492.5,428.5C 489.167,428.5 485.833,428.5 482.5,428.5C 482.5,423.833 482.5,419.167 482.5,414.5C 480.833,414.5 479.167,414.5 477.5,414.5C 477.5,419.167 477.5,423.833 477.5,428.5C 474.5,428.5 471.5,428.5 468.5,428.5C 468.5,416.5 468.5,404.5 468.5,392.5 Z"/></g>
<g><path style="opacity:0.91" fill="#1e1e1e" d="M 12.5,393.5 C 15.5,393.5 18.5,393.5 21.5,393.5C 21.5,396.833 21.5,400.167 21.5,403.5C 12.4066,403.106 8.90657,407.439 11,416.5C 13.061,420.981 16.561,422.648 21.5,421.5C 21.6646,424.518 21.498,427.518 21,430.5C 7.65836,432.342 0.825028,426.342 0.5,412.5C 0.271018,403.253 4.27102,396.92 12.5,393.5 Z"/></g>
<g><path style="opacity:0.853" fill="#1e1e1e" d="M 83.5,394.5 C 90.6758,393.985 92.3425,396.818 88.5,403C 84.2288,404.513 81.8954,403.013 81.5,398.5C 81.7517,396.927 82.4183,395.594 83.5,394.5 Z"/></g>
<g><path style="opacity:0.811" fill="#1d1d1d" d="M 112.5,394.5 C 119.676,393.985 121.342,396.818 117.5,403C 110.416,403.475 108.749,400.642 112.5,394.5 Z"/></g>
<g><path style="opacity:0.845" fill="#1e1e1e" d="M 330.5,396.5 C 333.5,396.5 336.5,396.5 339.5,396.5C 339.5,398.833 339.5,401.167 339.5,403.5C 340.5,403.5 341.5,403.5 342.5,403.5C 342.5,405.833 342.5,408.167 342.5,410.5C 341.5,410.5 340.5,410.5 339.5,410.5C 339.5,416.5 339.5,422.5 339.5,428.5C 336.5,428.5 333.5,428.5 330.5,428.5C 330.5,422.5 330.5,416.5 330.5,410.5C 329.5,410.5 328.5,410.5 327.5,410.5C 327.5,408.167 327.5,405.833 327.5,403.5C 328.5,403.5 329.5,403.5 330.5,403.5C 330.5,401.167 330.5,398.833 330.5,396.5 Z"/></g>
<g><path style="opacity:0.926" fill="#1c1c1c" d="M 67.5,398.5 C 70.1667,398.5 72.8333,398.5 75.5,398.5C 75.5,400.833 75.5,403.167 75.5,405.5C 76.8333,405.5 78.1667,405.5 79.5,405.5C 79.6633,407.857 79.4966,410.19 79,412.5C 77.9887,413.337 76.8221,413.67 75.5,413.5C 75.5,419.167 75.5,424.833 75.5,430.5C 72.5,430.5 69.5,430.5 66.5,430.5C 66.8412,423.401 66.1746,416.401 64.5,409.5C 65.5155,405.794 66.5155,402.128 67.5,398.5 Z"/></g>
<g><path style="opacity:0.904" fill="#1e1e1e" d="M 389.5,402.5 C 396.817,401.309 399.817,404.309 398.5,411.5C 392.064,411.538 390.398,414.372 393.5,420C 395.112,420.72 396.612,420.554 398,419.5C 399.727,428.566 396.227,431.4 387.5,428C 382.108,421.371 381.275,414.204 385,406.5C 386.397,404.93 387.897,403.596 389.5,402.5 Z"/></g>
<g><path style="opacity:0.895" fill="#1e1e1e" d="M 405.5,402.5 C 408.365,402.055 410.865,402.722 413,404.5C 416.057,403.549 419.223,403.216 422.5,403.5C 422.5,411.833 422.5,420.167 422.5,428.5C 419.223,428.784 416.057,428.451 413,427.5C 406.523,431.091 402.523,429.091 401,421.5C 399.382,414.324 400.882,407.991 405.5,402.5 Z M 410.5,410.5 C 411.496,410.414 412.329,410.748 413,411.5C 413.667,414.5 413.667,417.5 413,420.5C 412,421.833 411,421.833 410,420.5C 409.253,417.076 409.42,413.743 410.5,410.5 Z"/></g>
<g><path style="opacity:0.882" fill="#1e1e1e" d="M 501.5,402.5 C 504.365,402.055 506.865,402.722 509,404.5C 512.057,403.549 515.223,403.216 518.5,403.5C 518.5,411.833 518.5,420.167 518.5,428.5C 515.223,428.784 512.057,428.451 509,427.5C 504.675,430.569 501.008,429.902 498,425.5C 496.494,420.254 496.161,414.921 497,409.5C 497.938,406.743 499.438,404.41 501.5,402.5 Z M 506.5,410.5 C 508.884,411.425 509.884,413.258 509.5,416C 508.007,423.248 506.673,423.248 505.5,416C 505.581,414.076 505.914,412.243 506.5,410.5 Z"/></g>
<g><path style="opacity:0.913" fill="#1e1e1e" d="M 527.5,402.5 C 535.179,400.975 538.513,403.975 537.5,411.5C 530.528,411.279 528.862,414.113 532.5,420C 533.899,420.595 535.232,420.428 536.5,419.5C 539.2,425.585 537.367,428.919 531,429.5C 524.154,427.508 520.987,422.841 521.5,415.5C 521.269,410.015 523.269,405.682 527.5,402.5 Z"/></g>
<g><path style="opacity:0.881" fill="#1e1e1e" d="M 571.5,402.5 C 582.143,402.481 586.81,407.815 585.5,418.5C 581.5,418.5 577.5,418.5 573.5,418.5C 573.222,420.346 573.889,421.68 575.5,422.5C 578.599,420.364 581.932,420.03 585.5,421.5C 581.601,429.9 575.768,431.567 568,426.5C 562.472,417.368 563.639,409.368 571.5,402.5 Z M 574.5,409.5 C 576.912,409.694 577.912,411.027 577.5,413.5C 576.167,413.5 574.833,413.5 573.5,413.5C 573.433,412.041 573.766,410.708 574.5,409.5 Z"/></g>
<g><path style="opacity:0.921" fill="#1e1e1e" d="M 600.5,402.5 C 601.833,402.5 603.167,402.5 604.5,402.5C 604.5,405.5 604.5,408.5 604.5,411.5C 601.453,410.855 599.287,411.855 598,414.5C 597.501,419.155 597.334,423.821 597.5,428.5C 594.5,428.5 591.5,428.5 588.5,428.5C 588.5,420.167 588.5,411.833 588.5,403.5C 592.03,402.989 595.196,403.656 598,405.5C 599.045,404.627 599.878,403.627 600.5,402.5 Z"/></g>
<g><path style="opacity:0.83" fill="#1e1e1e" d="M 370.5,403.5 C 373.5,403.5 376.5,403.5 379.5,403.5C 379.5,411.833 379.5,420.167 379.5,428.5C 376.5,428.5 373.5,428.5 370.5,428.5C 370.5,420.167 370.5,411.833 370.5,403.5 Z"/></g>
<g><path style="opacity:0.886" fill="#1d1d1d" d="M 30.5,404.5 C 41.0894,404.432 45.756,409.765 44.5,420.5C 40.5,420.5 36.5,420.5 32.5,420.5C 32.7721,424.814 34.1055,425.314 36.5,422C 38.8098,421.503 41.1432,421.337 43.5,421.5C 43.1231,429.193 39.1231,432.359 31.5,431C 27.2579,429.755 24.7579,426.922 24,422.5C 22.3425,414.962 24.5092,408.962 30.5,404.5 Z M 35.5,413.5 C 34.791,414.404 33.791,414.737 32.5,414.5C 32.5,413.5 32.5,412.5 32.5,411.5C 34.1788,411.285 35.1788,411.952 35.5,413.5 Z"/></g>
<g><path style="opacity:0.872" fill="#1e1e1e" d="M 59.5,404.5 C 60.8333,404.5 62.1667,404.5 63.5,404.5C 63.5,407.5 63.5,410.5 63.5,413.5C 60.9556,413.104 58.7889,413.771 57,415.5C 56.5007,420.489 56.3341,425.489 56.5,430.5C 53.5,430.5 50.5,430.5 47.5,430.5C 47.5,422.167 47.5,413.833 47.5,405.5C 50.909,405.249 54.2423,405.583 57.5,406.5C 58.5223,406.145 59.189,405.478 59.5,404.5 Z"/></g>
<g><path style="opacity:0.884" fill="#1d1d1d" d="M 130.5,404.5 C 140.94,404.667 145.274,410.001 143.5,420.5C 139.5,420.5 135.5,420.5 131.5,420.5C 131.222,422.346 131.889,423.68 133.5,424.5C 134.824,422.682 136.657,421.682 139,421.5C 140.973,421.309 142.473,421.976 143.5,423.5C 139.039,432.384 132.873,433.718 125,427.5C 121.667,421.167 121.667,414.833 125,408.5C 126.5,406.531 128.333,405.198 130.5,404.5 Z M 132.5,411.5 C 133.995,411.415 134.995,412.081 135.5,413.5C 134.167,414.833 132.833,414.833 131.5,413.5C 131.863,412.817 132.196,412.15 132.5,411.5 Z"/></g>
<g><path style="opacity:0.877" fill="#1e1e1e" d="M 110.5,405.5 C 113.5,405.5 116.5,405.5 119.5,405.5C 119.5,413.833 119.5,422.167 119.5,430.5C 116.5,430.5 113.5,430.5 110.5,430.5C 110.5,422.167 110.5,413.833 110.5,405.5 Z"/></g>
<g><path style="opacity:0.852" fill="#1e1e1e" d="M 81.5,405.5 C 84.5,405.5 87.5,405.5 90.5,405.5C 90.5,413.833 90.5,422.167 90.5,430.5C 87.5,430.5 84.5,430.5 81.5,430.5C 81.5,422.167 81.5,413.833 81.5,405.5 Z"/></g>
<g><path style="opacity:0.014" fill="#000000" d="M 35.5,413.5 C 36.7514,414.472 36.418,415.139 34.5,415.5C 33.5836,415.457 32.9169,415.124 32.5,414.5C 33.791,414.737 34.791,414.404 35.5,413.5 Z"/></g>
</svg>
